<svg xmlns:rdf="http://www.w3.org/1999/02/22-rdf-syntax-ns#" xmlns="http://www.w3.org/2000/svg" enable-background="new 0 0 595.28 453.543" xml:space="preserve" height="16" viewBox="0 0 15.999999 16" width="16" version="1.1" y="0px" x="0px" xmlns:cc="http://creativecommons.org/ns#" xmlns:dc="http://purl.org/dc/elements/1.1/"><metadata><rdf:RDF><cc:Work rdf:about=""><dc:format>image/svg+xml</dc:format><dc:type rdf:resource="http://purl.org/dc/dcmitype/StillImage"/><dc:title/></cc:Work></rdf:RDF></metadata><path fill="#009fe3" d="M137.22-170.13"/><path fill="#236796" d="m13.691,2.8386c-0.54913-0.2702-1.1669-0.42218-1.8203-0.42218-2.0265,0.000061-3.7118,1.4599-4.0622,3.3853,0,0,0.36148-0.07937,0.9736-0.49939,0.6972-0.4786,0.9693-1.1099,2.0656-1.3232-0.925,0.3944-1.1065,1.0153-1.062,1.6578,0.345-0.7576,1.109-1.2842,1.996-1.2842,1.2112,0,2.193,0.98182,2.193,2.193,0,1.1941-0.95453,2.2141-2.1422,2.1918-0.408-0.0078-1.311-0.4082-2.2604-0.9314-0.9145-0.5041-2.7083-1.5757-3.6318-2.0632-0.5384-0.2842-1.1616-0.4177-1.8115-0.4177-2.2805,0-4.1293,1.8487-4.1293,4.1292,0,1.6271,0.94131,3.0342,2.309,3.707,0.54916,0.27019,1.1669,0.42218,1.8203,0.42218,2.0265-0.000061,3.7118-1.4599,4.0622-3.3852,0,0-0.36148,0.07934-0.97363,0.49936-0.69752,0.47859-0.9696,1.11-2.0661,1.3232,0.9252-0.39434,1.1067-1.0153,1.0622-1.6578-0.34533,0.75765-1.1092,1.2842-1.9962,1.2842-1.2112,0-2.193-0.98179-2.193-2.193,0-1.1941,0.95453-2.214,2.1422-2.1917,0.40823,0.0077,1.3111,0.40811,2.2604,0.93135,0.9145,0.50402,2.7083,1.5756,3.6317,2.0631,0.53841,0.28424,1.1616,0.4178,1.8116,0.4178,2.28,0.001,4.129-1.8478,4.129-4.1284,0-1.6271-0.941-3.0342-2.309-3.707z"/></svg>