<?xml version="1.0" encoding="UTF-8" standalone="no"?>
<!-- Created with Inkscape (http://www.inkscape.org/) -->

<svg
   xmlns:dc="http://purl.org/dc/elements/1.1/"
   xmlns:cc="http://creativecommons.org/ns#"
   xmlns:rdf="http://www.w3.org/1999/02/22-rdf-syntax-ns#"
   xmlns:svg="http://www.w3.org/2000/svg"
   xmlns="http://www.w3.org/2000/svg"
   version="1.1"
   width="32"
   height="32"
   id="svg2">
  <metadata
     id="metadata12">
    <rdf:RDF>
      <cc:Work
         rdf:about="">
        <dc:format>image/svg+xml</dc:format>
        <dc:type
           rdf:resource="http://purl.org/dc/dcmitype/StillImage" />
        <dc:title></dc:title>
      </cc:Work>
    </rdf:RDF>
  </metadata>
  <defs
     id="defs10" />
  <g
     transform="matrix(-1.7655149,-1.7665899,-1.7655149,1.7665899,-39.275726,24.608198)"
     id="g4">
    <path
       d="m -13.21582,-17.843488 c -0.843755,6e-6 -1.507329,0.225592 -1.990723,0.676758 -0.483402,0.451177 -0.725101,1.07227 -0.725098,1.863281 -3e-6,0.791019 0.241696,1.412112 0.725098,1.863281 0.483394,0.451174 1.146968,0.676759 1.990723,0.676758 0.843743,1e-6 1.508782,-0.227049 1.995117,-0.681152 0.48632,-0.454099 0.729484,-1.073728 0.729492,-1.858887 -8e-6,-0.791011 -0.241707,-1.412104 -0.725098,-1.863281 -0.483405,-0.451166 -1.149909,-0.676752 -1.999511,-0.676758 z m -1.775391,-0.755859 c -0.761722,-0.187493 -1.354983,-0.541985 -1.779785,-1.063477 -0.424807,-0.521476 -0.637209,-1.157217 -0.637207,-1.907226 -2e-6,-1.048818 0.373533,-1.877918 1.120605,-2.487305 0.747067,-0.609362 1.770992,-0.914049 3.071778,-0.914063 1.306633,1.4e-5 2.332023,0.304701 3.076172,0.914063 0.7441306,0.609387 1.1162006,1.438487 1.1162105,2.487305 -9.9e-6,0.750009 -0.212412,1.38575 -0.637207,1.907226 -0.4248135,0.521492 -1.0151455,0.875984 -1.7709965,1.063477 0.855461,0.199225 1.521964,0.588873 1.9995121,1.168945 0.4775291,0.580083 0.7162984,1.289067 0.7163086,2.126953 -1.02e-5,1.271487 -0.3881934,2.247072 -1.1645508,2.926758 -0.7763759,0.679687 -1.8881909,1.019531 -3.3354489,1.019531 -1.44727,0 -2.559086,-0.339844 -3.33545,-1.019531 -0.776368,-0.679686 -1.164552,-1.655271 -1.16455,-2.926758 -2e-6,-0.837886 0.240233,-1.54687 0.720703,-2.126953 0.480466,-0.580072 1.148434,-0.96972 2.003906,-1.168945 z m -0.650391,-2.803711 c -3e-6,0.679696 0.212399,1.209969 0.637207,1.59082 0.424801,0.380867 1.020992,0.571297 1.788575,0.571289 0.761712,8e-6 1.357903,-0.190422 1.788574,-0.571289 0.430656,-0.380851 0.645988,-0.911124 0.645996,-1.59082 -8e-6,-0.679677 -0.21534,-1.20995 -0.645996,-1.590821 -0.430671,-0.380847 -1.026862,-0.571277 -1.788574,-0.571289 -0.767583,1.2e-5 -1.363774,0.190442 -1.788575,0.571289 -0.424808,0.380871 -0.63721,0.911144 -0.637207,1.590821 z"
       id="path6"
       style="fill:#20508c" />
  </g>
</svg>
